<svg xmlns="http://www.w3.org/2000/svg" xml:space="preserve" width="1500" height="75" data-id="lg_zbFFe4Y0Fqis84ePLh" data-version="1" viewBox="0 0 1500 75"><g data-padding="20"><g transform="translate(10 1.337)scale(.96435)"><rect width="560" height="74.58" x="86.302" y="-400.13" fill="none" rx="0" ry="0" transform="translate(400.5 400.34)"/><path fill="#001f3f" d="M498.922 58.29q-2.11 0-4.51-.81-2.41-.8-4.15-2.68l1.37-5.41q1.29 2.16 3.3 3.42 2.02 1.26 4.31 1.26 2.2 0 3.3-1.08 1.1-1.07 1.1-2.63 0-1.79-1.17-2.62-1.17-.82-2.08-1.14l-3.71-1.42q-1.01-.41-2.43-1.22-1.42-.8-2.48-2.31-1.05-1.51-1.05-3.94 0-2.2 1.05-4.04 1.06-1.83 2.98-2.91 1.93-1.07 4.54-1.07 2.06 0 4.31.73 2.24.73 3.8 2.47l-1.37 5.41q-1.1-2.01-2.98-3.21-1.88-1.19-3.9-1.19-1.88 0-2.96 1.06-1.07 1.05-1.07 2.43 0 1.1.73 1.97t2.2 1.42l3.71 1.42q1.01.37 2.5 1.19 1.49.83 2.64 2.38 1.14 1.56 1.14 4.22 0 3.71-2.59 6-2.59 2.3-6.53 2.3m36.45-.56h-4.95V34.35h-6.23v-4.12h6.37v-9.17h4.67v9.17h6.83v4.12h-6.69Zm37.03.56q-3.99 0-7.29-1.93-3.3-1.92-5.25-5.18-1.94-3.25-1.94-7.19 0-3.99 1.94-7.22 1.95-3.23 5.25-5.16 3.3-1.92 7.29-1.92 4.03 0 7.31 1.92 3.28 1.93 5.22 5.16 1.95 3.23 1.95 7.22 0 3.94-1.95 7.19-1.94 3.26-5.22 5.18-3.28 1.93-7.31 1.93m0-4.68q2.66 0 4.81-1.3 2.16-1.31 3.44-3.49t1.28-4.83q0-2.66-1.28-4.84t-3.44-3.48q-2.15-1.31-4.81-1.31t-4.81 1.31q-2.16 1.3-3.44 3.48t-1.28 4.84q0 2.65 1.28 4.83t3.44 3.49q2.15 1.3 4.81 1.3m46.02 4.68q-4.03 0-7.33-1.93-3.3-1.92-5.27-5.18-1.98-3.25-1.98-7.19 0-3.95 1.98-7.2 1.97-3.25 5.27-5.18 3.3-1.92 7.33-1.92 2.98 0 5.59 1.05t4.58 2.8l-1.51 6.23q-1.14-2.29-3.46-3.85-2.31-1.56-5.25-1.56-2.65 0-4.83 1.31-2.18 1.3-3.46 3.48-1.29 2.18-1.29 4.84 0 2.61 1.29 4.81 1.28 2.2 3.46 3.51 2.18 1.3 4.83 1.3 2.94 0 5.25-1.51 2.32-1.51 3.46-3.9l1.51 6.24q-1.97 1.74-4.58 2.79-2.61 1.06-5.59 1.06m52.44-.55h-6.28l-12.42-15.13 10.22-12.37h5.73l-10.04 12Zm-19.25 0h-4.95v-44h4.95Zm74.81.55q-4.3 0-7.72-1.93-3.41-1.92-5.36-5.25-1.95-3.32-1.95-7.4 0-3.89 1.88-7.08t5.06-5.06q3.19-1.88 7.04-1.88 3.8 0 6.97 1.81 3.16 1.81 5.04 4.88t1.88 6.96v2.02h-17.97q-1.19 0-2.43-.09t-2.43-.28q.51 3.67 3.33 6.15 2.81 2.47 6.71 2.47 2.61 0 4.86-1.19 2.24-1.19 3.62-3.16l1.37 5.63q-1.97 1.61-4.51 2.5-2.54.9-5.39.9m-10.13-16.64q2.48-.41 5-.41h9.12q1.01 0 2 .07.98.06 1.99.16-.64-3.21-3.21-5.3-2.57-2.08-5.82-2.08-3.35 0-5.87 2.22t-3.21 5.34m43.95 16.09h-5.68l9.67-14.58-8.62-12.92h5.78l2.66 4.21q.87 1.33 1.72 2.78.84 1.44 1.49 2.95.68-1.51 1.53-2.93t1.72-2.8l2.61-4.21h5.69l-8.62 12.92 9.67 14.58h-5.87l-3.76-6.01-1.65-2.68q-.82-1.35-1.46-2.82-.64 1.47-1.47 2.82-.82 1.35-1.65 2.68Zm49.79.55q-4.03 0-7.33-1.93-3.3-1.92-5.27-5.18-1.97-3.25-1.97-7.19 0-3.95 1.97-7.2t5.27-5.18q3.3-1.92 7.33-1.92 2.98 0 5.59 1.05 2.62 1.05 4.59 2.8l-1.52 6.23q-1.14-2.29-3.46-3.85-2.31-1.56-5.24-1.56-2.66 0-4.84 1.31-2.18 1.3-3.46 3.48t-1.28 4.84q0 2.61 1.28 4.81t3.46 3.51q2.18 1.3 4.84 1.3 2.93 0 5.24-1.51 2.32-1.51 3.46-3.9l1.52 6.24q-1.97 1.74-4.59 2.79-2.61 1.06-5.59 1.06m33.19-.55h-4.95v-44h4.95v20.39q1.56-2.15 3.85-3.3 2.29-1.14 4.9-1.14 2.94 0 5.43 1.44 2.5 1.44 4.06 4.17t1.56 6.62v15.82h-4.95V42.61q0-3.25-1.95-5.75t-5.48-2.5q-2.88 0-5.15 2.09-2.27 2.08-2.27 6.02Zm51.84.36q-3.76 0-6.88-1.9-3.11-1.9-4.97-5.11-1.85-3.21-1.85-7.1 0-3.9 1.85-7.11 1.86-3.21 4.97-5.11 3.12-1.9 6.88-1.9 2.84 0 5.34 1.05 2.5 1.06 4.33 2.94v-3.62h4.58v27.5h-4.58v-3.62q-1.83 1.83-4.33 2.91-2.5 1.07-5.34 1.07m.64-4.49q2.61 0 4.74-1.3 2.14-1.31 3.4-3.49t1.26-4.83q0-2.66-1.26-4.84t-3.4-3.48q-2.13-1.31-4.74-1.31t-4.74 1.31q-2.13 1.3-3.39 3.48t-1.26 4.84q0 2.65 1.26 4.83t3.39 3.49q2.13 1.3 4.74 1.3m39.37 4.13h-4.95v-27.5h4.58v4.44q1.51-2.43 3.92-3.71 2.4-1.28 5.2-1.28 2.93 0 5.43 1.44t4.06 4.17 1.56 6.62v15.82h-4.95V42.61q0-3.25-1.95-5.75t-5.48-2.5q-2.89 0-5.16 2.09-2.26 2.08-2.26 6.02Zm51.2 14.3q-3.17 0-5.76-.92t-4.6-2.52l1.37-5.59q1.38 1.97 3.67 3.21 2.29 1.23 5.27 1.23 4.63 0 7.49-2.79 2.87-2.8 2.87-7.2v-3.34q-1.84 1.83-4.33 2.91-2.5 1.07-5.34 1.07-3.76 0-6.88-1.9-3.11-1.9-4.97-5.11t-1.86-7.1q0-3.9 1.86-7.11t4.97-5.11q3.12-1.9 6.88-1.9 2.84 0 5.34 1.05 2.49 1.06 4.33 2.94v-3.62h4.58v27.5q0 4.49-2.08 7.7-2.09 3.2-5.48 4.9t-7.33 1.7m1.28-18.43q2.61 0 4.74-1.3 2.13-1.31 3.39-3.49t1.26-4.83q0-2.66-1.26-4.84t-3.39-3.48q-2.13-1.31-4.74-1.31t-4.75 1.31q-2.13 1.3-3.39 3.48t-1.26 4.84q0 2.65 1.26 4.83t3.39 3.49q2.14 1.3 4.75 1.3m47.53 4.68q-4.31 0-7.72-1.93-3.42-1.92-5.36-5.25-1.95-3.32-1.95-7.4 0-3.89 1.88-7.08t5.06-5.06q3.19-1.88 7.04-1.88 3.8 0 6.96 1.81 3.17 1.81 5.05 4.88 1.87 3.07 1.87 6.96v2.02h-17.96q-1.19 0-2.43-.09t-2.43-.28q.5 3.67 3.32 6.15 2.82 2.47 6.72 2.47 2.61 0 4.86-1.19 2.24-1.19 3.62-3.16l1.37 5.63q-1.97 1.61-4.51 2.5-2.55.9-5.39.9m-10.13-16.64q2.48-.41 5-.41h9.12q1.01 0 1.99.07.99.06 2 .16-.65-3.21-3.21-5.3-2.57-2.08-5.82-2.08-3.35 0-5.87 2.22t-3.21 5.34"/></g><path fill="transparent" stroke="transparent" d="M469.5 0h561v75h-561z"/></g></svg>